#!OML:ASF H:\Male1\Project 1\Capture day 1\Session 1\Male1.ASF
:FULLY-SPECIFIED
:DEGREES
520
root 15.1654 15.3833 3.50337 176.246 -30.718 181.481
lowerback 10.2489 0.331683 -1.13778
upperback 3.63379 0.0481309 -1.04411
thorax -1.96945 -0.0835588 -0.441678
lowerneck -5.82128 4.32621 8.14058
upperneck 1.9986 5.33999 -4.83435
head 2.05971 2.62389 -2.80748
rclavicle -5.18828e-014 -2.14687e-014
rhumerus -87.8522 29.2606 -120.358
rradius 95.3262
rwrist -37.2273
rhand -44.3406 33.9298
rfingers 7.12502
rthumb -17.1491 4.66658
lclavicle -5.18828e-014 -2.14687e-014
lhumerus -91.7813 -18.7312 110.189
lradius 105.798
lwrist 34.4794
lhand -42.8991 5.35794
lfingers 7.12502
lthumb -15.7612 34.7362
rfemur -3.38869 11.9949 23.7443
rtibia 24.308
rfoot -29.3512 -26.4645
rtoes -12.3074
lfemur -4.61186 -12.7872 -19.009
ltibia 27.71
lfoot -24.0354 23.4123
ltoes -4.8208
521
root 15.1809 15.3739 3.49318 176.284 -31.0615 181.495
lowerback 10.3389 0.308546 -1.52927
upperback 3.46625 -0.0221457 -1.19254
thorax -2.19266 -0.114353 -0.366975
lowerneck -5.8192 4.25713 8.07337
upperneck 2.16738 5.23066 -4.26479
head 2.08197 2.58345 -2.60593
rclavicle 3.60794e-014 -2.62396e-014
rhumerus -87.8861 29.1457 -120.412
rradius 95.143
rwrist -37.2187
rhand -44.3428 33.5221
rfingers 7.12502
rthumb -17.1512 4.25906
lclavicle 3.60794e-014 -2.62396e-014
lhumerus -92.2533 -18.8608 110.496
lradius 105.944
lwrist 34.4096
lhand -43.3098 5.02142
lfingers 7.12502
lthumb -16.1567 34.368
rfemur -3.66418 11.3914 23.8081
rtibia 24.6431
rfoot -28.1878 -27.2962
rtoes -16.4837
lfemur -4.85945 -12.6223 -18.8459
ltibia 27.9415
lfoot -23.8572 23.0346
ltoes -5.56576
522
root 15.1976 15.3615 3.47853 176.394 -31.3967 181.469
lowerback 10.2466 0.300043 -2.01941
upperback 3.36071 -0.0850026 -1.40649
thorax -2.25101 -0.1437 -0.305304
lowerneck -5.91682 4.20219 8.09453
upperneck 2.35617 5.11236 -3.52196
head 2.12605 2.5418 -2.36258
rclavicle -3.3694e-014 7.15625e-015
rhumerus -87.7533 29.0615 -120.469
rradius 94.9227
rwrist -37.341
rhand -44.3234 33.2596
rfingers 7.12502
rthumb -17.1325 3.99497
lclavicle -3.3694e-014 7.15625e-015
lhumerus -92.65 -19.0982 110.737
lradius 106.05
lwrist 34.2846
lhand -43.7606 5.19284
lfingers 7.12502
lthumb -16.5907 34.5037
rfemur -4.1116 10.6447 23.8358
rtibia 25.1221
rfoot -25.9456 -28.6957
rtoes -23.6544
lfemur -5.21766 -12.436 -18.6978
ltibia 28.2569
lfoot -23.746 22.6455
ltoes -6.17126
523
root 15.2217 15.3513 3.46573 176.339 -31.7641 181.573
lowerback 10.2949 0.256272 -2.53181
upperback 3.33275 -0.209384 -1.61558
thorax -2.30458 -0.207755 -0.218854
lowerneck -6.11282 4.20977 8.07703
upperneck 2.48321 5.0484 -2.49054
head 2.15965 2.52998 -2.01409
rclavicle 9.77027e-014 -3.89618e-014
rhumerus -87.4592 29.1511 -120.572
rradius 94.6223
rwrist -37.549
rhand -43.9689 33.565
rfingers 7.12502
rthumb -16.7913 4.27105
lclavicle 9.77027e-014 -3.89618e-014
lhumerus -92.9303 -19.2619 110.872
lradius 106.183
lwrist 34.1524
lhand -44.1545 5.73256
lfingers 7.12502
lthumb -16.97 35.0112
rfemur -4.46278 10.1211 23.993
rtibia 25.7265
rfoot -24.8517 -29.1462
rtoes -26.7606
lfemur -5.61976 -12.0986 -18.4045
ltibia 28.7525
lfoot -23.325 22.3069
ltoes -8.04379
524
root 15.2495 15.3371 3.45113 176.176 -32.2215 181.777
lowerback 10.4324 0.215245 -3.05754
upperback 3.29003 -0.335863 -1.78369
thorax -2.42078 -0.271867 -0.0820338
lowerneck -6.11087 4.17746 7.87974
upperneck 2.44957 4.94312 -1.2144
head 2.0877 2.49668 -1.56268
rclavicle -5.725e-014 -2.14687e-014
rhumerus -87.1541 29.1754 -120.577
rradius 94.2871
rwrist -37.7215
rhand -43.6425 33.6418
rfingers 7.12502
rthumb -16.477 4.32148
lclavicle -5.725e-014 -2.14687e-014
lhumerus -93.3278 -19.39 111.194
lradius 106.255
lwrist 34.0322
lhand -44.4778 5.58613
lfingers 7.12502
lthumb -17.2811 34.8378
rfemur -4.84358 9.38515 24.2306
rtibia 26.4778
rfoot -24.8277 -29.0079
rtoes -27.3119
lfemur -6.10484 -11.6278 -17.976
ltibia 29.4453
lfoot -22.9401 21.6922
ltoes -9.84749
525
root 15.2774 15.3164 3.42997 176.14 -32.6754 181.843
lowerback 10.4356 0.229341 -3.78604
upperback 3.22716 -0.403676 -1.93093
thorax -2.48241 -0.30597 0.182558
lowerneck -6.04924 4.12772 7.58792
upperneck 2.45623 4.81957 0.129564
head 2.01576 2.45285 -1.08139
rclavicle -6.81831e-014 3.26007e-014
rhumerus -86.8778 29.0824 -120.373
rradius 94.0012
rwrist -37.7474
rhand -43.693 33.2817
rfingers 7.12502
rthumb -16.5257 3.96543
lclavicle -6.81831e-014 3.26007e-014
lhumerus -93.7304 -19.5647 111.715
lradius 106.227
lwrist 33.9431
lhand -44.5163 5.3118
lfingers 7.12502
lthumb -17.3182 34.5602
rfemur -5.39229 8.31343 24.318
rtibia 27.3764
rfoot -24.9545 -28.7551
rtoes -27.9766
lfemur -6.77955 -11.0271 -17.6401
ltibia 30.3726
lfoot -22.9105 20.7911
ltoes -10.4072
526
root 15.3063 15.2878 3.40689 176.005 -33.1565 181.962
lowerback 10.4403 0.264556 -4.4955
upperback 3.25322 -0.44532 -2.06541
thorax -2.45205 -0.332125 0.44581
lowerneck -6.09414 4.07542 7.43435
upperneck 2.44052 4.66956 1.38978
head 1.96708 2.39126 -0.656717
rclavicle -4.25399e-014 0
rhumerus -86.5838 28.9783 -120.004
rradius 93.8858
rwrist -37.6865
rhand -43.6072 33.3826
rfingers 7.12502
rthumb -16.4431 4.0595
lclavicle -4.25399e-014 0
lhumerus -94.0732 -19.9072 112.36
lradius 106.249
lwrist 34.0118
lhand -44.7155 5.83209
lfingers 7.12502
lthumb -17.5099 35.0635
rfemur -5.9055 7.08382 24.4546
rtibia 28.3458
rfoot -25.0468 -28.4324
rtoes -28.7609
lfemur -7.57135 -10.1585 -17.2323
ltibia 31.6139
lfoot -22.985 19.6581
ltoes -10.9134
527
root 15.3373 15.2533 3.38735 175.763 -33.7822 182.201
lowerback 10.6123 0.169052 -5.27489
upperback 3.27787 -0.676073 -2.11202
thorax -2.50254 -0.45058 0.863165
lowerneck -6.00625 4.09332 7.3485
upperneck 2.24443 4.62623 2.5583
head 1.8472 2.37128 -0.276688
rclavicle 6.04305e-014 -7.31528e-014
rhumerus -86.5664 29.2211 -119.758
rradius 93.9041
rwrist -37.6804
rhand -43.205 33.6509
rfingers 7.12502
rthumb -16.0558 4.29616
lclavicle 6.04305e-014 -7.31528e-014
lhumerus -94.3901 -20.0324 113.082
lradius 106.183
lwrist 34.2365
lhand -45.3067 6.35607
lfingers 7.12502
lthumb -18.0787 35.5359
rfemur -6.34753 5.79265 24.6461
rtibia 29.3241
rfoot -25.3685 -27.7382
rtoes -28.31
lfemur -8.55623 -8.96615 -16.6738
ltibia 33.1807
lfoot -22.8706 18.3603
ltoes -12.9808
528
root 15.3658 15.214 3.37093 175.376 -34.5326 182.933
lowerback 10.6902 -0.00751592 -5.57495
upperback 3.29211 -0.944984 -2.06996
thorax -2.51006 -0.583964 1.10873
lowerneck -5.8349 4.06547 7.2189
upperneck 1.91951 4.5294 3.84985
head 1.66823 2.31367 0.140235
rclavicle 6.34123e-014 1.74931e-014
rhumerus -86.4698 29.4437 -119.491
rradius 93.8388
rwrist -37.6846
rhand -42.6765 33.6391
rfingers 7.12502
rthumb -15.5468 4.24402
lclavicle 6.34123e-014 1.74931e-014
lhumerus -94.6668 -20.2811 113.848
lradius 105.913
lwrist 34.6355
lhand -45.9397 5.82791
lfingers 7.12502
lthumb -18.6877 34.9503
rfemur -6.97357 4.29377 25.2097
rtibia 30.3482
rfoot -25.4964 -27.0386
rtoes -28.0204
lfemur -9.89178 -7.65938 -15.6609
ltibia 34.981
lfoot -22.7042 17.1078
ltoes -16.0839
529
root 15.3933 15.1673 3.35495 174.687 -35.2326 184.224
lowerback 10.7134 -0.0915557 -5.25589
upperback 3.33229 -1.00983 -1.93352
thorax -2.48023 -0.614321 1.07998
lowerneck -5.7342 3.91675 7.02664
upperneck 1.6256 4.265 5.21737
head 1.51331 2.16803 0.584413
rclavicle 7.15625e-014 -4.45278e-014
rhumerus -86.3069 29.3282 -119.038
rradius 93.9028
rwrist -37.7222
rhand -42.2172 33.6298
rfingers 7.12502
rthumb -15.1044 4.20089
lclavicle 7.15625e-014 -4.45278e-014
lhumerus -95.0047 -20.8482 114.669
lradius 105.712
lwrist 35.1986
lhand -46.3382 5.56011
lfingers 7.12502
lthumb -19.0709 34.6451
rfemur -7.71973 2.73944 26.2728
rtibia 31.4712
rfoot -25.6806 -26.4845
rtoes -28.1276
lfemur -11.3686 -6.46377 -14.1729
ltibia 36.9107
lfoot -22.9216 15.7303
ltoes -17.2952
530
root 15.4242 15.1122 3.3411 174.136 -35.828 185.117
lowerback 10.8435 -0.10137 -5.29761
upperback 3.42489 -1.0335 -1.85095
thorax -2.45136 -0.630004 1.193
lowerneck -5.72541 3.82182 6.84714
upperneck 1.34501 4.0688 6.47808
head 1.39054 2.05201 0.998094
rclavicle 5.06901e-014 1.43125e-014
rhumerus -86.214 29.3377 -118.64
rradius 94.1258
rwrist -37.785
rhand -42.1405 33.7768
rfingers 7.12502
rthumb -15.0305 4.34238
lclavicle 5.06901e-014 1.43125e-014
lhumerus -95.1696 -21.2267 115.295
lradius 105.644
lwrist 35.5685
lhand -46.1276 7.90241
lfingers 7.12502
lthumb -18.8684 37.0073
rfemur -8.4808 1.393 26.9957
rtibia 32.74
rfoot -25.9973 -25.9678
rtoes -28.4335
lfemur -12.7392 -5.4258 -13.0934
ltibia 38.8829
lfoot -23.3294 14.4574
ltoes -17.8354
531
root 15.4511 15.0511 3.33384 173.776 -36.2996 185.682
lowerback 10.9806 -0.155801 -5.61382
upperback 3.55401 -1.15183 -1.79351
thorax -2.37697 -0.697432 1.44525
lowerneck -5.68802 3.82984 6.69464
upperneck 0.942105 4.02862 7.60175
head 1.23138 2.00099 1.36896
rclavicle -7.03698e-014 5.40694e-014
rhumerus -85.993 29.6153 -118.333
rradius 94.1523
rwrist -37.6664
rhand -42.2171 33.7891
rfingers 7.12502
rthumb -15.1043 4.36025
lclavicle -7.03698e-014 5.40694e-014
lhumerus -94.9894 -21.1988 115.696
lradius 105.448
lwrist 35.6097
lhand -47.4798 6.12253
lfingers 7.12502
lthumb -20.1685 35.0956
rfemur -9.41622 0.179557 27.414
rtibia 34.2676
rfoot -26.0454 -25.6417
rtoes -29.7558
lfemur -14.0004 -4.63741 -12.3857
ltibia 40.8053
lfoot -23.8678 13.5458
ltoes -18.8967
532
root 15.4669 14.983 3.3363 173.287 -36.5433 186.428
lowerback 11.2065 -0.193587 -5.56717
upperback 3.62827 -1.21112 -1.69641
thorax -2.41827 -0.729062 1.53055
lowerneck -5.53339 3.82186 6.63171
upperneck 0.47694 4.00096 8.4544
head 1.04052 1.94645 1.63828
rclavicle -3.3197e-014 1.11319e-014
rhumerus -85.8055 29.8259 -118.131
rradius 93.9553
rwrist -37.4662
rhand -42.2804 33.6232
rfingers 7.12502
rthumb -15.1653 4.19896
lclavicle -3.3197e-014 1.11319e-014
lhumerus -94.8093 -20.9841 116.09
lradius 105.184
lwrist 35.5847
lhand -48.2556 5.83192
lfingers 7.12502
lthumb -20.914 34.7245
rfemur -10.5506 -0.960587 27.9609
rtibia 36.1944
rfoot -26.1684 -25.267
rtoes -31.2194
lfemur -15.0887 -4.093 -11.591
ltibia 42.5664
lfoot -24.5199 12.8911
ltoes -19.5358
